PathFileType	4	(X/Y/Z)	/Users/itak/Documents/Research/Walk-IL/dataset/trc/00481_00167.trc
DataRate	CameraRate	NumFrames	NumMarkers	Units	OrigDataRate	OrigDataStartFrame	OrigNumFrames
100.000000	100.000000	4	53	mm	100.000000	316	632
Frame#	Time	RPSI			LPSI			L3			STRN			T10			C7			CLAV			RBAK			LBAK			LSHO			LUPA			LAEL			LAOL			LWTS			LWPS			LFRA			LIFD			LHPS			LHTS			RSHO			RUPA			RAEL			RAOL			RWTS			RWPS			RFRA			RIFD			RHTS			RHPS			RBHD			LFHD			RFHD			LBHD			LHIP			RHIP			RASI			LASI			LKNE			LTHI			LANK			LTIP			LTOE			LMT1			LMT5			LHEE			RKNE			RTHI			RANK			RTIP			RTOE			RMT1			RMT5			RHEE			
		X1	Y1	Z1	X2	Y2	Z2	X3	Y3	Z3	X4	Y4	Z4	X5	Y5	Z5	X6	Y6	Z6	X7	Y7	Z7	X8	Y8	Z8	X9	Y9	Z9	X10	Y10	Z10	X11	Y11	Z11	X12	Y12	Z12	X13	Y13	Z13	X14	Y14	Z14	X15	Y15	Z15	X16	Y16	Z16	X17	Y17	Z17	X18	Y18	Z18	X19	Y19	Z19	X20	Y20	Z20	X21	Y21	Z21	X22	Y22	Z22	X23	Y23	Z23	X24	Y24	Z24	X25	Y25	Z25	X26	Y26	Z26	X27	Y27	Z27	X28	Y28	Z28	X29	Y29	Z29	X30	Y30	Z30	X31	Y31	Z31	X32	Y32	Z32	X33	Y33	Z33	X34	Y34	Z34	X35	Y35	Z35	X36	Y36	Z36	X37	Y37	Z37	X38	Y38	Z38	X39	Y39	Z39	X40	Y40	Z40	X41	Y41	Z41	X42	Y42	Z42	X43	Y43	Z43	X44	Y44	Z44	X45	Y45	Z45	X46	Y46	Z46	X47	Y47	Z47	X48	Y48	Z48	X49	Y49	Z49	X50	Y50	Z50	X51	Y51	Z51	X52	Y52	Z52	X53	Y53	Z53	

317	3.16	119.5982055664062	934.9885864257812	-20.98074340820312	87.24289703369141	899.4834594726562	-153.8456115722656	118.5502700805664	1025.332763671875	-69.51995849609375	328.3414611816406	1227.666870117188	-248.3005981445312	101.3168106079102	1149.355712890625	-66.01048278808594	148.1027374267578	1416.883666992188	-113.062141418457	279.8606872558594	1336.42529296875	-244.9366912841797	181.6689147949219	1313.511352539062	9.175023078918457	63.51875686645508	1352.896850585938	-159.7702331542969	81.00045013427734	1371.084594726562	-289.2099609375	7.464347839355469	1248.662719726562	-340.4115905761719	-6.282131195068359	1033.950927734375	-363.3307800292969	-13.47192001342773	1024.197387695312	-261.3001098632812	106.9729232788086	844.597900390625	-386.3830261230469	37.00336074829102	820.6834106445312	-391.3585815429688	11.83777809143066	947.306640625	-383.3998413085938	119.5642776489258	685.2637939453125	-393.0171813964844	49.30141830444336	745.099365234375	-393.9120178222656	120.399299621582	760.2291259765625	-401.4164733886719	311.8739013671875	1411.881225585938	-51.12310791015625	373.8540649414062	1362.030029296875	6.625727653503418	510.1021423339844	1101.051635742188	-43.99943923950195	467.4044799804688	1056.701171875	-13.81767654418945	512.9578857421875	978.3236694335938	-243.0820465087891	572.3438720703125	937.4219970703125	-191.2502746582031	532.1904296875	1054.32080078125	-74.24993133544922	534.1952514648438	850.1571655273438	-327.8958129882812	531.416748046875	906.9829711914062	-306.1412048339844	577.4269409179688	871.6366577148438	-252.9513702392578	240.7431030273438	1637.362670898438	-167.2389678955078	136.9225006103516	1598.390502929688	-341.8234252929688	252.8567657470703	1644.43603515625	-304.2916259765625	76.80340576171875	1578.848754882812	-202.4467010498047	218.2711334228516	807.7412109375	-293.5755615234375	271.6060485839844	878.7296142578125	103.2245559692383	359.0049133300781	913.1869506835938	9.909573554992676	310.5362243652344	870.8963012695312	-235.7589111328125	425.5367736816406	442.80615234375	-266.3279418945312	373.5782775878906	585.446044921875	-295.6251831054688	377.2217712402344	36.07888031005859	-189.7823638916016	427.9687194824219	286.1958312988281	-262.1084899902344	614.8038330078125	36.56164169311523	-245.1038818359375	562.691162109375	42.93873977661133	-182.1732788085938	502.3345336914062	44.82092666625977	-276.1945495605469	370.2579040527344	44.2619743347168	-112.2590866088867	322.6353759765625	520.7785034179688	206.3057250976562	331.1048583984375	763.2857666015625	138.3006896972656	16.14011764526367	252.661376953125	386.4509887695312	245.4461669921875	417.7106628417969	277.6648559570312	104.5245895385742	58.684814453125	350.0896301269531	91.80559539794922	120.4864273071289	311.1916198730469	89.28002166748047	141.084716796875	416.3202514648438	-34.34561538696289	293.8481750488281	342.3818359375	
318	3.17	132.643798828125	937.7181396484375	-19.18830108642578	94.38211822509766	901.8568115234375	-150.5154876708984	128.8154907226562	1027.939453125	-68.87854766845703	331.9890747070312	1230.164672851562	-255.6065673828125	111.290885925293	1152.030151367188	-65.77867126464844	156.4302978515625	1419.537353515625	-114.7854690551758	283.7312927246094	1338.9580078125	-250.6581115722656	193.7510223388672	1316.273559570312	6.185389518737793	70.30118560791016	1355.630004882812	-158.7774658203125	83.68053436279297	1373.888793945312	-288.6014099121094	8.25165843963623	1251.739990234375	-337.7861633300781	-5.427187919616699	1036.39013671875	-359.5706787109375	-10.1368522644043	1026.708984375	-257.2857971191406	112.263069152832	850.5956420898438	-385.5871887207031	43.14522552490234	824.0359497070312	-388.4498291015625	14.39587688446045	950.078857421875	-380.0146484375	131.6858978271484	692.32421875	-393.9180908203125	58.61248016357422	748.902587890625	-391.7181091308594	128.6208190917969	767.2423095703125	-401.791015625	321.9069213867188	1414.597900390625	-58.02030181884766	385.5082397460938	1365.0458984375	-1.904118776321411	520.7843627929688	1104.207153320312	-54.85139083862305	479.0385437011719	1060.110717773438	-23.0041561126709	518.7401123046875	978.2076416015625	-252.3658752441406	579.669677734375	938.5674438476562	-201.3717956542969	542.2943725585938	1057.17822265625	-85.07693481445312	537.1019287109375	847.5377197265625	-334.5725402832031	535.2431640625	905.1201782226562	-314.3642883300781	582.8934936523438	871.1962890625	-261.6036071777344	248.7410278320312	1639.563842773438	-171.6712341308594	138.5110321044922	1601.537719726562	-342.5186157226562	255.9412231445312	1646.818359375	-309.1168823242188	83.31820678710938	1582.052734375	-201.0771484375	218.4712982177734	807.8814086914062	-294.4435729980469	290.6905212402344	882.1046752929688	98.34231567382812	372.5151977539062	916.1632080078125	0.7562636733055115	313.9239501953125	872.8182373046875	-241.9966430664062	425.9804382324219	442.2670288085938	-269.3738403320312	374.5204772949219	585.486083984375	-299.1572570800781	377.2153930664062	36.0230598449707	-189.9162750244141	427.945068359375	285.6742553710938	-263.923828125	614.7314453125	36.54806137084961	-245.1610412597656	562.5111694335938	43.07699584960938	-182.50927734375	502.1258239746094	44.52399826049805	-276.592041015625	370.3168029785156	44.49261856079102	-112.4039764404297	347.911865234375	524.2422485351562	198.8289794921875	352.4591369628906	766.4715576171875	130.5717315673828	51.81845855712891	259.0380249023438	395.3524169921875	273.9325561523438	422.2685241699219	274.4951171875	142.9101409912109	65.32279968261719	363.83447265625	126.2203750610352	124.9282379150391	322.1078796386719	129.6757507324219	150.6490478515625	426.5587158203125	-2.29133677482605	297.1624145507812	352.6224670410156	
319	3.18	145.8727569580078	940.2559814453125	-17.23293113708496	101.389045715332	904.2428588867188	-146.7499847412109	139.1901245117188	1030.448364257812	-67.99233245849609	335.2552795410156	1232.447265625	-262.7709045410156	121.4191589355469	1154.552978515625	-65.22212982177734	164.6861267089844	1422.029418945312	-116.3565063476562	287.320556640625	1341.298461914062	-256.20068359375	205.8382110595703	1318.9208984375	3.252588987350464	77.08721160888672	1358.141479492188	-157.4951629638672	86.24930572509766	1376.451049804688	-287.5963745117188	9.03563404083252	1254.545043945312	-334.720703125	-4.532155513763428	1038.604736328125	-355.5370483398438	-6.873034954071045	1028.97998046875	-253.0571594238281	117.2995452880859	856.4353637695312	-384.7161560058594	49.16164779663086	827.224853515625	-385.4565124511719	16.92629623413086	952.68603515625	-376.4503479003906	143.5736389160156	699.4376220703125	-394.5221557617188	67.82830810546875	752.590576171875	-389.3486022949219	136.5735168457031	774.144775390625	-401.9678344726562	331.773193359375	1417.170776367188	-64.95953369140625	396.9282531738281	1367.887329101562	-10.49233913421631	530.8510131835938	1106.97216796875	-65.32118225097656	489.9918823242188	1063.1884765625	-31.98412322998047	524.6226196289062	977.658935546875	-261.0177612304688	586.7702026367188	939.2841796875	-210.6446228027344	551.8628540039062	1059.589233398438	-95.400146484375	541.18310546875	844.8768920898438	-340.5907897949219	539.8877563476562	903.1090698242188	-321.9057006835938	588.7132568359375	870.5359497070312	-269.3418884277344	256.3780822753906	1641.577880859375	-175.9796447753906	139.8622283935547	1604.555053710938	-342.8452453613281	258.6261291503906	1649.109375	-313.6350402832031	89.72843170166016	1585.01513671875	-199.5301208496094	218.4023895263672	808.3013916015625	-295.2528686523438	309.8952941894531	885.29736328125	93.05741119384766	385.7508544921875	918.7700805664062	-8.890615463256836	316.5734558105469	874.5172729492188	-248.2065582275391	425.86328125	441.6734008789062	-272.3855590820312	374.7344970703125	585.3588256835938	-302.5762939453125	377.1976928710938	35.96852874755859	-190.0391998291016	427.5334777832031	285.11474609375	-265.707763671875	614.6631469726562	36.54072952270508	-245.2582550048828	562.3314819335938	43.2362060546875	-182.8794555664062	501.8789978027344	44.21983337402344	-277.021728515625	370.4071960449219	44.72805023193359	-112.4977111816406	373.0873718261719	527.57421875	190.6503295898438	373.6006164550781	769.5010986328125	122.1801910400391	88.63141632080078	264.5627136230469	403.0401611328125	302.9568481445312	426.3779296875	270.4747314453125	181.1615142822266	71.20391845703125	373.9169921875	161.0038757324219	128.9679718017578	330.486328125	170.4321441650391	158.6712341308594	433.8519897460938	31.3441219329834	300.2646179199219	362.3465881347656	
320	3.19	159.1917724609375	942.6461181640625	-15.2730827331543	108.3122863769531	906.62255859375	-142.6847534179688	149.6645965576172	1032.844970703125	-66.97373199462891	338.1371154785156	1234.477416992188	-269.7820129394531	131.7085571289062	1156.9111328125	-64.38458251953125	172.8994903564453	1424.359375	-117.7721710205078	290.6488037109375	1343.415161132812	-261.5631103515625	217.9458312988281	1321.410400390625	0.3588239252567291	83.90565490722656	1360.448608398438	-155.9130249023438	88.71207427978516	1378.771118164062	-286.1736450195312	9.835800170898438	1257.05029296875	-331.1711730957031	-3.523551940917969	1040.586547851562	-351.2239074707031	-3.601651906967163	1030.964477539062	-248.6105194091797	122.1361846923828	862.06103515625	-383.7734680175781	55.08693313598633	830.2655029296875	-382.4446105957031	19.49146461486816	955.1275634765625	-372.7166442871094	155.0718231201172	706.4966430664062	-394.7784729003906	76.89424896240234	756.1695556640625	-386.87890625	144.252685546875	780.840087890625	-401.9025268554688	341.4921875	1419.573852539062	-71.93654632568359	408.1330261230469	1370.51025390625	-19.14039039611816	540.3838500976562	1109.309692382812	-75.4053955078125	500.3089599609375	1065.899780273438	-40.74724960327148	530.63134765625	976.68359375	-269.0892944335938	593.69189453125	939.5498657226562	-219.1149597167969	560.9583129882812	1061.520874023438	-105.2198181152344	546.359619140625	842.1842041015625	-346.1321716308594	545.3057861328125	900.9539794921875	-328.884033203125	594.8765869140625	869.6461791992188	-276.2922973632812	263.6563415527344	1643.435546875	-180.2165222167969	140.9855651855469	1607.383422851562	-342.8308715820312	260.910888671875	1651.281127929688	-317.8932189941406	96.04544067382812	1587.73291015625	-197.8223114013672	218.1893157958984	808.9329223632812	-295.9302368164062	329.0124206542969	888.3255615234375	87.27637481689453	398.6251831054688	921.0558471679688	-18.95536994934082	318.5460510253906	875.9136962890625	-254.3101959228516	425.3047790527344	441.0300598144531	-275.2837219238281	374.1794738769531	584.9483642578125	-305.7619323730469	377.1721496582031	35.92952346801758	-190.1445465087891	426.8755493164062	284.5331115722656	-267.398193359375	614.6072998046875	36.53870391845703	-245.3995361328125	562.1663818359375	43.40018463134766	-183.2694091796875	501.608642578125	43.92096328735352	-277.4685974121094	370.5205078125	44.95647430419922	-112.5406875610352	398.1233825683594	530.8009643554688	181.7512054443359	394.3802185058594	772.4234008789062	113.1312561035156	126.4972610473633	269.1788330078125	409.4544067382812	332.4464721679688	430.0609130859375	265.504638671875	219.2028045654297	76.18766784667969	380.1609191894531	195.9552001953125	132.5840606689453	336.1663513183594	211.3545532226562	165.0164642333984	438.1667785644531	66.4869384765625	303.1703186035156	371.41748046875	
